<?xml version="1.0" encoding="UTF-8"?>
<svg width="14px" height="15px" viewBox="0 0 14 15" version="1.1" xmlns="http://www.w3.org/2000/svg" xmlns:xlink="http://www.w3.org/1999/xlink">
    <!-- Generator: Sketch 44.1 (41455) - http://www.bohemiancoding.com/sketch -->
    <title>Fill 1</title>
    <desc>Created with Sketch.</desc>
    <defs></defs>
    <g id="Berkely-web-2017" stroke="none" stroke-width="1" fill="none" fill-rule="evenodd">
        <g id="CSS-attributes" transform="translate(-1404.000000, -251.000000)" fill="#FFFFFF">
            <g id="Group-2" transform="translate(1404.000000, 251.000000)">
                <path d="M5.85454545,1.57894737 C8.24065455,1.57894737 10.1818182,3.58578947 10.1818182,6.05263158 C10.1818182,8.51947368 8.24065455,10.5263158 5.85454545,10.5263158 C3.46843636,10.5263158 1.52727273,8.51947368 1.52727273,6.05263158 C1.52727273,3.58578947 3.46843636,1.57894737 5.85454545,1.57894737 M13.7866909,13.6544737 L10.3355636,9.94368421 C11.2229091,8.85315789 11.7090909,7.48105263 11.7090909,6.05263158 C11.7090909,2.71526316 9.08269091,-3.55271368e-15 5.85454545,-3.55271368e-15 C2.6264,-3.55271368e-15 0,2.71526316 0,6.05263158 C0,9.39 2.6264,12.1052632 5.85454545,12.1052632 C7.06643636,12.1052632 8.22130909,11.7273684 9.20869091,11.01 L12.6860364,14.7489474 C12.8313818,14.905 13.0268727,14.9910526 13.2363636,14.9910526 C13.4346545,14.9910526 13.6227636,14.9128947 13.7655636,14.7707895 C14.0689818,14.4689474 14.0786545,13.9684211 13.7866909,13.6544737" id="Fill-1"></path>
            </g>
        </g>
    </g>
</svg>