<?xml version="1.0" encoding="UTF-8"?>
<svg width="19px" height="19px" viewBox="0 0 19 19" version="1.1" xmlns="http://www.w3.org/2000/svg" xmlns:xlink="http://www.w3.org/1999/xlink">
    <!-- Generator: Sketch 44.1 (41455) - http://www.bohemiancoding.com/sketch -->
    <title>Page 1</title>
    <desc>Created with Sketch.</desc>
    <defs></defs>
    <g id="Berkely-web-2017" stroke="none" stroke-width="1" fill="none" fill-rule="evenodd">
        <g id="CSS-attributes" transform="translate(-1332.000000, -248.000000)" fill="#FFFFFF">
            <g id="Page-1" transform="translate(1332.000000, 248.000000)">
                <g id="Group-3" transform="translate(0.000000, 0.079631)">
                    <path d="M9.1828298,17.6837727 C13.4932331,17.9208233 17.4206288,14.3632197 17.6655913,10.000086 C17.9197813,5.46994777 14.4426931,1.52684485 9.97898838,1.28340399 C5.32494874,1.02976344 1.49585783,4.50085407 1.24154477,9.2043871 C1.00285714,13.6180276 4.57320574,17.430255 9.1828298,17.6837727 M9.71212577,18.9156006 C4.61196172,19.144172 0.260833903,15.0402089 0.00984278879,9.76463287 C-0.22859877,4.75400307 3.91595352,0.25458679 8.9569378,0.0513302611 C14.2104033,-0.160528418 18.6583595,3.82042396 18.8977854,8.94865745 C19.1482843,14.3079201 15.1251675,18.6731429 9.71212577,18.9156006" id="Fill-1"></path>
                </g>
                <path d="M13.7757949,13.9902427 L5.17615038,13.9902427 C5.17615038,13.2290753 5.10577444,12.4916252 5.19300615,11.7732227 C5.31874778,10.7367865 6.14381955,10.0338679 7.23193985,10.0067097 C8.72459877,9.96935177 10.2198414,9.9649278 11.7121312,10.0073241 C12.9327601,10.0419785 13.7259658,10.8735607 13.7717348,12.0811797 C13.7948653,12.6925469 13.7757949,13.3057573 13.7757949,13.9902427" id="Fill-4"></path>
                <path d="M9.46056869,9.12662366 C8.10890772,9.12846697 7.05302256,8.06929647 7.06052768,6.71863594 C7.06778674,5.40889708 8.12231852,4.33903533 9.4259959,4.31863594 C10.735702,4.29811367 11.8609788,5.39832873 11.87562,6.71372043 C11.8901381,8.03156989 10.7961121,9.12465745 9.46056869,9.12662366" id="Fill-6"></path>
            </g>
        </g>
    </g>
</svg>